<svg
  xmlns="http://www.w3.org/2000/svg"
  version="1.1"
  viewBox="0.00 0.00 900.00 900.00"
>
  <g strokeWidth="2" fill="none" strokeLinecap="butt">
    <path
      stroke="#ffb922"
      vectorEffect="non-scaling-stroke"
      d="
  M 523.02 340.12
  L 463.06 399.98"
    />
    <path
      stroke="#fa9512"
      vectorEffect="non-scaling-stroke"
      d="
  M 463.06 399.98
  L 463.28 398.49
  Q 463.35 398.06 463.04 397.76
  Q 460.91 395.66 459.50 393.00
  Q 432.65 342.13 406.11 291.88
  A 1.53 1.52 -40.2 0 0 403.55 291.67
  Q 401.28 294.63 399.60 297.87
  Q 377.66 340.21 355.51 382.45
  Q 334.94 421.70 314.16 460.85
  Q 309.37 469.89 304.86 478.56
  Q 275.96 534.09 266.46 552.04
  Q 255.07 573.54 249.35 584.60
  C 245.79 591.47 240.79 600.01 236.96 607.96
  C 235.18 611.65 232.76 615.38 230.87 619.21
  C 228.02 624.98 225.74 629.03 223.08 633.93
  Q 222.68 634.67 222.02 634.72
  Q 221.69 634.75 221.57 635.06
  L 219.43 641.00
  A 1.85 1.82 49.0 0 0 219.37 641.96
  Q 219.75 643.69 220.42 643.00"
    />
    <path
      stroke="#ffb922"
      vectorEffect="non-scaling-stroke"
      d="
  M 220.42 643.00
  C 219.07 644.55 220.30 645.67 221.79 646.26
  Q 225.98 647.93 229.66 650.48
  Q 230.71 651.20 233.10 652.23
  Q 234.88 653.00 236.24 654.49
  A 1.18 1.14 68.6 0 0 237.07 654.87
  Q 238.72 654.89 239.38 655.38
  C 244.03 658.81 249.67 661.31 254.02 664.04
  Q 257.42 666.18 260.87 668.23
  Q 262.32 669.10 265.32 670.21
  Q 268.29 671.30 274.00 674.95
  Q 278.71 677.95 282.47 679.96
  Q 292.24 685.16 301.78 690.76
  Q 302.22 691.02 302.49 691.44
  Q 303.00 692.23 303.80 692.15
  Q 304.30 692.10 304.73 692.35
  Q 316.23 698.81 327.76 705.20
  Q 328.91 705.83 338.62 711.48
  Q 344.04 714.64 349.69 717.40
  C 351.96 718.51 354.11 720.09 355.98 721.15
  Q 383.64 736.82 400.40 745.84
  Q 400.77 746.04 400.92 746.28
  A 0.96 0.22 63.4 0 0 401.31 746.75
  L 412.33 752.51
  Q 412.78 752.75 413.06 753.18
  Q 413.52 753.87 414.27 753.89
  Q 414.69 753.90 415.03 754.15
  Q 416.35 755.11 420.01 757.10
  Q 428.52 761.73 433.89 764.24
  Q 437.33 765.84 441.41 766.42
  Q 447.06 767.22 449.27 767.17
  Q 460.95 766.92 468.79 762.56
  Q 573.20 704.37 677.70 646.32
  C 678.95 645.63 680.42 645.64 681.82 645.44
  Q 682.33 645.36 682.33 644.84
  L 682.30 641.55"
    />
    <path
      stroke="#faa720"
      vectorEffect="non-scaling-stroke"
      d="
  M 220.42 643.00
  L 463.06 399.98"
    />
  </g>
  <path
    fill="#ffa714"
    d="
  M 523.02 340.12
  L 463.06 399.98
  L 463.28 398.49
  Q 463.35 398.06 463.04 397.76
  Q 460.91 395.66 459.50 393.00
  Q 432.65 342.13 406.11 291.88
  A 1.53 1.52 -40.2 0 0 403.55 291.67
  Q 401.28 294.63 399.60 297.87
  Q 377.66 340.21 355.51 382.45
  Q 334.94 421.70 314.16 460.85
  Q 309.37 469.89 304.86 478.56
  Q 275.96 534.09 266.46 552.04
  Q 255.07 573.54 249.35 584.60
  C 245.79 591.47 240.79 600.01 236.96 607.96
  C 235.18 611.65 232.76 615.38 230.87 619.21
  C 228.02 624.98 225.74 629.03 223.08 633.93
  Q 222.68 634.67 222.02 634.72
  Q 221.69 634.75 221.57 635.06
  L 219.43 641.00
  A 1.85 1.82 49.0 0 0 219.37 641.96
  Q 219.75 643.69 220.42 643.00
  C 219.07 644.55 220.30 645.67 221.79 646.26
  Q 225.98 647.93 229.66 650.48
  Q 230.71 651.20 233.10 652.23
  Q 234.88 653.00 236.24 654.49
  A 1.18 1.14 68.6 0 0 237.07 654.87
  Q 238.72 654.89 239.38 655.38
  C 244.03 658.81 249.67 661.31 254.02 664.04
  Q 257.42 666.18 260.87 668.23
  Q 262.32 669.10 265.32 670.21
  Q 268.29 671.30 274.00 674.95
  Q 278.71 677.95 282.47 679.96
  Q 292.24 685.16 301.78 690.76
  Q 302.22 691.02 302.49 691.44
  Q 303.00 692.23 303.80 692.15
  Q 304.30 692.10 304.73 692.35
  Q 316.23 698.81 327.76 705.20
  Q 328.91 705.83 338.62 711.48
  Q 344.04 714.64 349.69 717.40
  C 351.96 718.51 354.11 720.09 355.98 721.15
  Q 383.64 736.82 400.40 745.84
  Q 400.77 746.04 400.92 746.28
  A 0.96 0.22 63.4 0 0 401.31 746.75
  L 412.33 752.51
  Q 412.78 752.75 413.06 753.18
  Q 413.52 753.87 414.27 753.89
  Q 414.69 753.90 415.03 754.15
  Q 416.35 755.11 420.01 757.10
  Q 428.52 761.73 433.89 764.24
  Q 437.33 765.84 441.41 766.42
  Q 447.06 767.22 449.27 767.17
  Q 460.95 766.92 468.79 762.56
  Q 573.20 704.37 677.70 646.32
  C 678.95 645.63 680.42 645.64 681.82 645.44
  Q 682.33 645.36 682.33 644.84
  L 682.30 641.55
  L 683.06 646.37
  Q 683.14 646.86 682.70 647.10
  Q 580.35 704.02 478.01 760.95
  Q 466.09 767.58 460.23 769.11
  Q 448.53 772.18 436.95 768.82
  Q 431.54 767.25 418.97 760.20
  Q 318.44 703.83 217.45 647.20
  A 0.77 0.76 -71.1 0 1 217.06 646.40
  Q 217.31 644.82 217.59 643.04
  Q 256.29 394.52 295.04 146.01
  C 295.87 140.67 296.45 136.66 300.64 133.10
  Q 307.32 127.40 315.70 130.60
  C 320.46 132.42 322.46 136.34 324.80 140.73
  Q 364.22 214.57 403.97 288.23
  Q 404.30 288.84 404.86 288.61
  A 0.69 0.67 0.9 0 0 405.20 288.29
  Q 421.00 258.23 436.74 228.24
  C 442.98 216.36 457.44 217.04 463.64 228.86
  Q 507.69 312.96 521.84 339.64
  Q 522.23 340.38 523.02 340.12
  Z"
  />
  <path
    fill="#ffcb2f"
    d="
  M 682.30 641.55
  L 682.33 644.84
  Q 682.33 645.36 681.82 645.44
  C 680.42 645.64 678.95 645.63 677.70 646.32
  Q 573.20 704.37 468.79 762.56
  Q 460.95 766.92 449.27 767.17
  Q 447.06 767.22 441.41 766.42
  Q 437.33 765.84 433.89 764.24
  Q 428.52 761.73 420.01 757.10
  Q 416.35 755.11 415.03 754.15
  Q 414.69 753.90 414.27 753.89
  Q 413.52 753.87 413.06 753.18
  Q 412.78 752.75 412.33 752.51
  L 401.31 746.75
  A 0.96 0.22 63.4 0 1 400.92 746.28
  Q 400.77 746.04 400.40 745.84
  Q 383.64 736.82 355.98 721.15
  C 354.11 720.09 351.96 718.51 349.69 717.40
  Q 344.04 714.64 338.62 711.48
  Q 328.91 705.83 327.76 705.20
  Q 316.23 698.81 304.73 692.35
  Q 304.30 692.10 303.80 692.15
  Q 303.00 692.23 302.49 691.44
  Q 302.22 691.02 301.78 690.76
  Q 292.24 685.16 282.47 679.96
  Q 278.71 677.95 274.00 674.95
  Q 268.29 671.30 265.32 670.21
  Q 262.32 669.10 260.87 668.23
  Q 257.42 666.18 254.02 664.04
  C 249.67 661.31 244.03 658.81 239.38 655.38
  Q 238.72 654.89 237.07 654.87
  A 1.18 1.14 68.6 0 1 236.24 654.49
  Q 234.88 653.00 233.10 652.23
  Q 230.71 651.20 229.66 650.48
  Q 225.98 647.93 221.79 646.26
  C 220.30 645.67 219.07 644.55 220.42 643.00
  L 463.06 399.98
  L 523.02 340.12
  Q 560.77 302.58 598.29 264.79
  C 602.46 260.60 609.31 259.60 614.61 262.19
  Q 621.66 265.64 623.14 274.85
  Q 652.66 458.21 682.30 641.55
  Z"
  />
  <path
    fill="#f58310"
    d="
  M 463.06 399.98
  L 220.42 643.00
  Q 219.75 643.69 219.37 641.96
  A 1.85 1.82 49.0 0 1 219.43 641.00
  L 221.57 635.06
  Q 221.69 634.75 222.02 634.72
  Q 222.68 634.67 223.08 633.93
  C 225.74 629.03 228.02 624.98 230.87 619.21
  C 232.76 615.38 235.18 611.65 236.96 607.96
  C 240.79 600.01 245.79 591.47 249.35 584.60
  Q 255.07 573.54 266.46 552.04
  Q 275.96 534.09 304.86 478.56
  Q 309.37 469.89 314.16 460.85
  Q 334.94 421.70 355.51 382.45
  Q 377.66 340.21 399.60 297.87
  Q 401.28 294.63 403.55 291.67
  A 1.53 1.52 -40.2 0 1 406.11 291.88
  Q 432.65 342.13 459.50 393.00
  Q 460.91 395.66 463.04 397.76
  Q 463.35 398.06 463.28 398.49
  L 463.06 399.98
  Z"
  />
</svg>
